<?xml version="1.0" standalone="no"?>
<!DOCTYPE svg PUBLIC "-//W3C//DTD SVG 20010904//EN"
 "http://www.w3.org/TR/2001/REC-SVG-20010904/DTD/svg10.dtd">
<svg version="1.0" xmlns="http://www.w3.org/2000/svg"
 width="148.000000pt" height="148.000000pt" viewBox="0 0 148.000000 148.000000"
 preserveAspectRatio="xMidYMid meet">
<metadata>
Created by potrace 1.10, written by Peter Selinger 2001-2011
</metadata>
<g transform="translate(0.000000,148.000000) scale(0.100000,-0.100000)"
fill="#000000" stroke="none">
<path d="M510 1122 c0 -5 8 -16 18 -25 14 -13 53 -16 234 -19 l216 -3 44 -30
c56 -40 88 -96 88 -156 0 -41 -16 -109 -25 -109 -3 0 -69 37 -83 46 -1 1 2 13
9 27 15 33 5 72 -26 103 -24 24 -27 24 -200 24 l-175 0 0 -94 0 -94 183 -4
c204 -3 222 -8 280 -81 26 -31 32 -48 34 -100 5 -76 -20 -126 -85 -172 -43
-29 -47 -30 -179 -34 l-136 -3 36 43 c21 23 37 46 37 51 0 4 41 8 90 8 83 0
93 2 115 24 32 32 40 69 25 107 -23 55 -38 59 -227 59 l-173 0 0 -51 c0 -66
-13 -89 -50 -89 -37 0 -50 23 -50 89 l0 51 -95 0 -95 0 0 -74 c0 -115 42 -189
135 -239 38 -21 53 -22 285 -22 232 0 247 1 285 22 119 64 168 202 114 318
l-21 45 21 45 c54 116 5 255 -114 318 -37 20 -58 22 -277 25 -144 2 -238 0
-238 -6z m240 -237 l0 -50 -46 1 -47 1 1 47 c0 25 1 47 1 49 1 1 21 2 46 2
l45 0 0 -50z m212 20 c7 -16 7 -29 -1 -44 -10 -18 -21 -21 -71 -21 -32 0 -65
-3 -74 -6 -13 -5 -16 3 -16 47 l0 54 76 -3 c67 -3 76 -6 86 -27z m-502 -293
c0 -40 23 -88 49 -102 25 -13 77 -13 102 0 26 14 49 62 49 102 0 32 1 33 45
33 l45 0 0 -48 c0 -103 -90 -197 -190 -197 -37 0 -93 24 -126 52 -43 38 -64
86 -64 147 l0 46 45 0 c44 0 45 -1 45 -33z m431 28 c53 0 61 -3 70 -24 8 -17
8 -29 0 -44 -9 -17 -22 -21 -86 -24 l-75 -3 0 54 c0 44 3 52 16 47 9 -3 42 -6
75 -6z"/>
</g>
</svg>
